<?xml version="1.0" standalone="no"?>
<!DOCTYPE svg PUBLIC "-//W3C//DTD SVG 20010904//EN"
 "http://www.w3.org/TR/2001/REC-SVG-20010904/DTD/svg10.dtd">
<svg version="1.0" xmlns="http://www.w3.org/2000/svg"
 width="2272.000000pt" height="1704.000000pt" viewBox="0 0 2272.000000 1704.000000"
 preserveAspectRatio="xMidYMid meet">

<g transform="translate(0.000000,1704.000000) scale(0.100000,-0.100000)"
fill="#000000" stroke="none">
<path d="M4198 11818 c-463 -512 -615 -684 -858 -978 -656 -790 -1083 -1441
-1370 -2084 -454 -1019 -521 -1919 -194 -2571 171 -340 471 -649 814 -837 233
-128 569 -229 900 -270 177 -22 677 -16 895 10 657 80 1337 263 2110 567 311
122 425 171 5875 2503 6805 2912 8770 3755 8735 3747 -34 -7 -164 -42 -6930
-1840 -4507 -1198 -6256 -1663 -7080 -1880 -392 -104 -653 -154 -1030 -197
-67 -8 -229 -13 -415 -12 -336 0 -471 14 -702 73 -321 81 -545 204 -771 421
-315 303 -478 663 -517 1140 -30 361 47 844 205 1300 117 334 325 778 507
1078 11 17 17 32 14 32 -2 0 -87 -91 -188 -202z"/>
</g>
</svg>
